/* XPM */
static char *a9b77011a49c4ae08053197ee84777c3PCLoqAWbAqYNtNpJ[] = {
/* columns rows colors chars-per-pixel */
"32 32 9 1 ",
"  c #3D2C11",
". c #4D381C",
"X c #5E4522",
"o c #70592B",
"O c #78652B",
"+ c #BF4830",
"@ c #916A3B",
"# c #FDAE35",
"$ c #FFD943",
/* pixels */
".oXXX.oXXXX.oXXX.oXXX.oXXX.oXXXX",
" oXXX.oXXXX.oXXX.oXXX.oXXX.oXXXX",
".oXXX.oXXXX.oXXX.oXXX.oXXX.oXXXX",
" @XXX.oXXXX oXXX.oXXX oXXX oXXXX",
" oXXX oXXXX #######++.oXXX.oXXXX",
" oXXX.OXXX##+########++XXX OXXXX",
" @XXX OXX#+###########++XX OXXXX",
" @XXX @X#+##########$$#++. @XXXX",
" @XXX O#+##########$$$$#++ OXXXX",
" @XXX @#+#####+##+$$$$##++ @XXXX",
" @XXX @#+#####+##+$$$###++ @XXXX",
" @XXX #+#####++++++$#####++@XXXX",
" @XXX #+####++#$$$++#####++@XXXX",
" X... #+####++$$$$++#####++@XXXX",
"  ..  #+####++$$$########++@XXXX",
" .@X. #+####+++$#########++@XXXX",
" ooXX #+###$$$++++#######++@XXXX",
".@XXX #+##$$$$###++######++@XXXX",
" @XXX #+#$$$$#####++#####++X....",
" @XXX #+#$$$++####++#####++ ... ",
" @XXX #+#$$#++####++#####++.@oX.",
" @XXX @#+####++++++#####++ @oXXX",
" @XXX @#+#####+##+######++ @XXXX",
" @XXX @#+#####+##+######++ @XXXX",
" @XXX @X#+#############++X @XXXX",
" @XXX.@XX#+###########++XX @XXXX",
" @XXX OXXX##+########++XXX OXXXX",
" oXXX.@XXXX.#######++ OXXX.OXXXX",
".@XXX.OXXXX OXXX.OXXX.OXXX OXXXX",
" oXXX.OXXXX.OXXX OXXX OXXX.OXXXX",
".oXXX.oXXXX.oXXX.oXXX.oXXX.oXXXX",
".oXXX.oXXXX.oXXX.oXXX.oXXX.oXXXX"
};
