/* XPM */
static char *coin[] = {
/* columns rows colors chars-per-pixel */
"39 39 9 1 ",
"  c #4E8F27",
". c #0D0712",
"X c #294B1A",
"o c #94B333",
"O c #162C0D",
"+ c #633B2A",
"@ c #663931",
"# c #542A23",
"$ c #B17255",
/* pixels */
"                                       ",
"                                       ",
"                                       ",
"                                       ",
"                                       ",
"                                       ",
"                                       ",
"                                       ",
"             ...           ..          ",
"             .Xo.     ..  .  ...       ",
"            .OX .     . . .XX o.       ",
"            .OXXo.   .X o.OOOXo.       ",
"             .OX .   .OXoXO   .        ",
"             .OXoo.  .OO OXOOXo.       ",
"              .   o.. XO O+ooX.        ",
"              .XXX oOX O+OX  o.        ",
"          ....OOOX oOX+@OOOXX.         ",
"        ..o XXOX OO X@##O OXX.         ",
"        . XXXO.@X#$X@OOOOX o.          ",
"         .XOO. .#$+#OOXoOXX o.         ",
"          ...  .$+##OOX oX...          ",
"              .$+##X oOX .             ",
"             .$+@..O  oOXo..           ",
"            .$ o.  .XX oOXoo.          ",
"           .$XX .  .OX  O   o.         ",
"          .$+OX o.  .OX X..O .         ",
"          .+@OX o.  .OXX.  ...         ",
"         .++#.. o.   ....              ",
"         .+@.  ...                     ",
"        .++#.                          ",
"        .+@#.                          ",
"         ...                           ",
"                                       ",
"                                       ",
"                                       ",
"                                       ",
"                                       ",
"                                       ",
"                                       "
};