/* XPM */
static char *en1[] = {
/* columns rows colors chars-per-pixel */
"39 39 8 1 ",
"  c #4E8F27",
". c #2F2F2E",
"X c #9D5021",
"o c white",
"O c #D67941",
"+ c gray72",
"@ c #3B3B39",
"# c #4F4F4E",
/* pixels */
"                                       ",
"                                       ",
"                                       ",
"                                       ",
"                                       ",
"                                       ",
"                                       ",
"                                       ",
"                                       ",
"                                       ",
"                                       ",
"                                       ",
"                     ..                ",
"                    .X.  ...           ",
"                   .Xo. .XO.           ",
"         ..        .Xo.....            ",
"         .+...     .XXOOOO.            ",
"         .+ooO.    .XXO.XXX.           ",
"          .+XOO.  .XXXOOOO...          ",
"           .XOOO. .++ooooooo.          ",
"           .XXOO.....++ooo..           ",
"            .XX.XXXXX.....             ",
"             ..XXXXOOOOoo.             ",
"              .XXXOOOX++..             ",
"              .X....O...X.             ",
"              .@.@..#. .#.             ",
"              .. .  ..  ..             ",
"                                       ",
"                                       ",
"                                       ",
"                                       ",
"                                       ",
"                                       ",
"                                       ",
"                                       ",
"                                       ",
"                                       ",
"                                       ",
"                                       "
};