/* XPM */
static char *_9d8d18e8aaf4a5e8ec9748fc91ade88EutXs5h1oVJknYAY[] = {
/* columns rows colors chars-per-pixel */
"32 32 9 1 ",
"  c #161616",
". c #3D2C11",
"X c #4D381C",
"o c #5E4522",
"O c #70592B",
"+ c #78652B",
"@ c #263C6C",
"# c #916A3B",
"$ c #EEC39A",
/* pixels */
"XOoooXOooooXOoooXOoooXOoooXOoooo",
".OoooXOooooXOoooXOoooXOoooXOoooo",
"XOoooXOooooXOoo  OoooXOoooXOoooo",
".#oooXOoooo.Oo    ooo.Oooo.Ooooo",
".Oooo.Ooooo.Oo $ $oooXOoooXOoooo",
".OoooX+oooo.oX  $ ooo.+ooo.+oooo",
".#ooo.+oooo..XX  +ooo.+ooo.+oooo",
".#ooo.#oooo.X# @@ ooo.oXXX.#oooo",
".#ooo.+oooo.+      oo..XX..+oooo",
".#ooo.#oooo.        o.X#oX.#oooo",
".#ooo.#oooo.        o.#Ooo.#oooo",
".#ooo.#oooo@@      @@.#ooo.#oooo",
".#ooo.#oooo@@      @@.#ooo.#oooo",
".oXXX.#ooo  @      @  #ooo.#oooo",
"..XX..#ooo  #      o  #ooo.#oooo",
".X#oX.#ooo@@#      o@@#ooo.#oooo",
".OOoo.oXXX@@       o@@#ooo.#oooo",
"X#ooo..XXX@.  @  @@oo@#ooo.#oooo",
".#ooo.X#Oo .#@@@@@@oo #ooo.oXXXX",
".#ooo.#Ooo  @@@o.@@@  #ooo..XXX.",
".#ooo.#ooo  @@@o.@@@  #ooo.X#OoX",
".#ooo.#oooo. @oo.X@ X.#ooo.#Oooo",
".#ooo.#oooo   oo.#   .#ooo.#oooo",
".#ooo.#oooo  ooo.#o  .#ooo.#oooo",
".#ooo.#oooo@@ooo.#o@@.#ooo.#oooo",
".#oooX#oooo@@ooo.#o@@.#ooo.#oooo",
".#ooo.+oooo +ooo.+oo .+ooo.+oooo",
".OoooX#oooo +ooo.#oo .+oooX+oooo",
"X#oooX+ooo  +oooX+oo  +ooo.+oooo",
".OoooX+oo   +ooo.+oo   oooX+oooo",
"XOoooXOooooXOoooXOoooXOoooXOoooo",
"XOoooXOooooXOoooXOoooXOoooXOoooo"
};
