/* XPM */
static char *close_door[] = {
/* columns rows colors chars-per-pixel */
"39 39 44 1 ",
"  c #4E8F27",
". c #5E852D",
"X c #7F7139",
"o c #8F673F",
"O c #528C28",
"+ c #5A872C",
"@ c #6E8135",
"# c #8D7A47",
"$ c #9D764F",
"% c #727934",
"& c #AB8C62",
"* c #BA9570",
"= c #A78059",
"- c #BB946D",
"; c #C49E77",
": c #BA946D",
"> c #BC9269",
", c #BD9166",
"< c #9C754D",
"1 c #B79069",
"2 c #C29B73",
"3 c #BF946B",
"4 c #BD9167",
"5 c #9A7249",
"6 c #B1875D",
"7 c #C49E78",
"8 c #A47B53",
"9 c #B2865A",
"0 c #BA8D60",
"q c #BC9064",
"w c #BA926B",
"e c #B98D62",
"r c #C19971",
"t c #B98B5E",
"y c #9A7047",
"u c #AF8256",
"i c #C59F7A",
"p c #C0966D",
"a c #AE8256",
"s c #997047",
"d c #C7A27E",
"f c #976E45",
"g c #A77B50",
"h c #926941",
/* pixels */
"                                       ",
"                                       ",
"                                       ",
"                                       ",
"                                       ",
"             .XooooooooooX.            ",
"         O+..@#$$$$$$$$$$#@..+O        ",
"         +%XX#&**********&#XX%+        ",
"       O+@#$$=-;;;;;;;;;;:=$$#@+O      ",
"       +%#&**->,,,,,,,,,,>-**&#%+      ",
"       .X<1;;23444444444432;;1<X.      ",
"       .X56,,32777777777723,,65X.      ",
"      .@#890q32;;;;;;;;;;23q098#@.     ",
"      X#&weqr23,,,,,,,,,,32rqew&#X     ",
"      o<1rq47;,tttttttttt47;,qr1<o     ",
"      o56q047;,tttttttttt47;,0q65o     ",
"      oyutt47ip4444444444pi;,ttaso     ",
"      oyutt47di7777777777id;,ttaso     ",
"      oyuttqr;;;;;;;;;;;;;;rqttaso     ",
"      oyutt0q,,,,,,,,,,,,,,q0ttaso     ",
"      oyutttttttttttttttttt0qq0aso     ",
"      oyuttttttttttttttttttqrrqaso     ",
"      oyuttttttttttttttttttewweaso     ",
"      oyutttttttttttttttttt9889aso     ",
"      oyutttttttttttttttttt9889aso     ",
"      oyuttttttttttttttttttewweaso     ",
"      oyutttttttttttttttttt47;,aso     ",
"      oyutttttttttttttttttt47;,aso     ",
"      oyuttttttttttttttttttqrrqaso     ",
"      oyutttttttttttttttttt0qq0aso     ",
"      oyuttttttttttttttttttttttaso     ",
"      oyuttttttttttttttttttttttaso     ",
"      ofgaaaaaaaaaaaaaaaaaaaaaagfo     ",
"      ohfssssssssssssssssssssssfho     ",
"      oooooooooooooooooooooooooooo     ",
"                                       ",
"                                       ",
"                                       ",
"                                       "
};