/* XPM */
static char *_11dc37b54a3461fd3237e8bcb2b81a30Fds5Ix1INUp8TQ5[] = {
/* columns rows colors chars-per-pixel */
"32 32 41 1 ",
"  c #3D2C11",
". c #4D381C",
"X c #5E4522",
"o c #70592B",
"O c #78652B",
"+ c #916A3B",
"@ c #976E45",
"# c #8D7A47",
"$ c #997047",
"% c #9A7047",
"& c #9A7249",
"* c #9C754D",
"= c #9D764F",
"- c #A77B50",
"; c #A47B53",
": c #AE8256",
"> c #AF8256",
", c #A78059",
"< c #B2865A",
"1 c #B1875D",
"2 c #B98B5E",
"3 c #AB8C62",
"4 c #BA8D60",
"5 c #B98D62",
"6 c #BC9064",
"7 c #BD9166",
"8 c #BD9167",
"9 c #B79069",
"0 c #BA926B",
"q c #BC9269",
"w c #BF946B",
"e c #BA946D",
"r c #BB946D",
"t c #BA9570",
"y c #C0966D",
"u c #C19971",
"i c #C29B73",
"p c #C49E77",
"a c #C49E78",
"s c #C59F7A",
"d c #C7A27E",
/* pixels */
".oXXX.oXXXX.oXXX.oXXX.oXXX.oXXXX",
" oXXX.oXXXX.oXXX.oXXX.oXXX.oXXXX",
".oXXX.oXXX#==========#oXXX.oXXXX",
" +XXX.oXX#3tttttttttt3#XXX oXXXX",
" oXXX #==;yapipiaaiipq;==#.oXXXX",
" oXXX#3ttqw8yy5yy5y5yq0wt3#OXXXX",
" +XXX=9ppiyy5y7q5y5y5yiia9*OXXXX",
" +XXX&175yyppiapsapspiyy51*+XXXX",
" +XX#;<27yuppppppppppuy75<;#XXXX",
" +X#3057uuy7777777777yuu75q3#XXX",
" +X*5u5qpp722222222227ppyyy0=XXX",
" +X&<y57pp722222222227pp525<&XXX",
" +X$>227aayq7q7q7q777yap722:$XXX",
" X.$>227adaaapaaaaaapddp722:$XXX",
"  .$>227upppppppppappppu522:$XXX",
" .+$>2227777777777777776522:$XXX",
" oo%>22222222222222222255y5>$XXX",
".+X%>2222222222222222225iy5:$XXX",
" +X%>2222222222222222244q04:$...",
" +X%>222222222222222222<;;<:$.. ",
" +X%:222222222222222222<;;<:$oX.",
" +X%:2222222222222222224005:$XXX",
" +X%:222222222222222222qap7>$XXX",
" +X%:2222222222222222227ap7>$XXX",
" +X%>2222222222222222226uu6>%XXX",
" +X%>2222222222222222222755:%XXX",
" +X%>2222222222222222222222>%XXX",
" oX%>2222222222222222222222>%XXX",
".+X@-::::::::::::::::::::::-@XXX",
" oXX%%$$$$$$$$$$%$$$$$$$$$%@XXXX",
".oXXX.oXXXX.oXXX.oXXX.oXXX.oXXXX",
".oXXX.oXXXX.oXXX.oXXX.oXXX.oXXXX"
};
