/* XPM */
static char *_f72727fa4eb431df41af2ea6b3e0f73iZn1LUxw089aXV7s[] = {
/* columns rows colors chars-per-pixel */
"39 39 85 1 ",
"  c #4E8F27",
". c #5E852D",
"X c #7F7139",
"o c #8F673F",
"O c #4E7F31",
"+ c #4F5F45",
"@ c gray31",
"# c #528C28",
"$ c #5A872C",
"% c #6E8135",
"& c #8D7A47",
"* c #9A724B",
"= c #936B43",
"- c #7F6D3B",
"; c #5F7935",
": c #4E7238",
"> c #4C5945",
", c #4B4B4B",
"< c #4E832F",
"1 c #4E8B29",
"2 c #727934",
"3 c #AB8C62",
"4 c #AF8964",
"5 c #7F6540",
"6 c #5F6143",
"7 c #464B44",
"8 c #444444",
"9 c #4F6B3D",
"0 c #9C754D",
"q c #B79069",
"w c #7E6042",
"e c #5C5248",
"r c #484848",
"t c #434343",
"y c gray25",
"u c #9A7249",
"i c #B1875D",
"p c #7C5E40",
"a c #574D43",
"s c #414141",
"d c #9A7047",
"f c #AF8256",
"g c #AE8256",
"h c #997047",
"j c #7B5D3F",
"k c #544A40",
"l c #4C5943",
"z c #4E7635",
"x c #4E842E",
"c c #464E41",
"v c #4C633E",
"b c #4F6E3C",
"n c #444741",
"m c #4B5644",
"M c #4F5E45",
"N c #434542",
"B c #4B5148",
"V c #4F564B",
"C c #444544",
"Z c #4B4D4A",
"A c #4F514E",
"S c #4B4C4B",
"D c #4F504F",
"F c #6B7D32",
"G c #836F3A",
"H c #8B693D",
"J c #7D7238",
"K c #956F44",
"L c #A67B51",
"P c #A77B50",
"I c #976E45",
"U c gray28",
"Y c #4C4C4C",
"T c #5D862C",
"R c #7A7437",
"E c #8D6C3F",
"W c #926941",
"Q c #4E4E4E",
"! c #58882B",
"~ c #6E7C33",
"^ c #736D3C",
"/ c #5B6442",
"( c #528D28",
") c #5A832E",
"_ c #528030",
/* pixels */
"                                       ",
"                                       ",
"                                       ",
"       .XooX.O+@@@@@@@@@@+O            ",
"     #$%&*=-;:>,,,,,,,,,,>:OO<1        ",
"     $2&34*56>788888888887>++9<        ",
"     .X0qq0wertyyyyyyyyyytr,,>:<1      ",
"     .Xuiiupatsyyyyyyyyyyst887>9<      ",
"     .Xdfghjkyyyyyyyyyyyyyyyy8,+O      ",
"     .Xdfghjkyyyyyyyyyyyyyyyy8,+O      ",
"     .Xdfghjkyyyyyyyyyyyyyyyytrlzx     ",
"     .Xdfghjkyyyyyyyyyyyyyyyystcvb     ",
"     .XdfghjkyyyyyyyyyyyyyyyyyynmM     ",
"     .XdfghjkyyyyyyyyyyyyyyyyyyNBV     ",
"     .XdfghjkyyyyyyyyyyyyyyyyyyCZA     ",
"     .Xdfghjkyyyyyyyyyyyyyyyyyy8SD     ",
"     .Xdfghjkyyyyyyyyyyyyyyyyyy8,@     ",
"     .Xdfghjkyyyyyyyyyyyyyyyyyy8,@     ",
"     .Xdfghjkyyyyyyyyyyyyyyyyyy8,@     ",
"     .Xdfghjkyyyyyyyyyyyyyyyyyy8,@     ",
"    .FGdfghjkyyyyyyyyyyyyyyyyyy8,@     ",
"    XGHdfghjkyyyyyyyyyyyyyyyyyy8,@     ",
"    ooodfghjkyyyyyyyyyyyyyyyyyy8,@     ",
"    ooodfghjkyyyyyyyyyyyyyyyyyy8,@     ",
"    XGHdfghjkyyyyyyyyyyyyyyyyyy8,@     ",
"    .FGdfghjkyyyyyyyyyyyyyyyyyy8,@     ",
"     .Xdfghjkyyyyyyyyyyyyyyyyyy8,@     ",
"     .Xdfghjkyyyyyyyyyyyyyyyyyy8,@     ",
"     .Xdfghjkyyyyyyyyyyyyyyyyyy8,@     ",
"     .Xdfghjkyyyyyyyyyyyyyyyyyy8,@     ",
"     .JKLPIpa888888888888888888UY@     ",
"     TREKIWwe,,,,,,,,,,,,,,,,,,YQ@     ",
"     !~RJXX^/+++++++++++++++++++++     ",
"     (!T...)_OOOOOOOOOOOOOOOOOOOOO     ",
"                                       ",
"                                       ",
"                                       ",
"                                       ",
"                                       "
};