/* XPM */
static char *result[] = {
/* columns rows colors chars-per-pixel */
"32 32 122 2 ",
"   c #3D2C11",
".  c #4D381C",
"X  c #4D391C",
"o  c #4F3A1D",
"O  c #4E3B1D",
"+  c #4E3E1D",
"@  c #4D3C20",
"#  c #4D3E22",
"$  c #464B26",
"%  c #4E462B",
"&  c #4E492E",
"*  c #5E4522",
"=  c #5E4622",
"-  c #5E4722",
";  c #5D4725",
":  c #5F4724",
">  c #5E4823",
",  c #5F4823",
"<  c #5D4A23",
"1  c #5E4A23",
"2  c #5E4825",
"3  c #5C4826",
"4  c #5A4B2A",
"5  c #594D2D",
"6  c #5A4D2C",
"7  c #594E2E",
"8  c #584F2F",
"9  c #5A5127",
"0  c #5E5126",
"q  c #57572D",
"w  c #57572F",
"e  c #595429",
"r  c #555E2E",
"t  c #564E32",
"y  c #584F30",
"u  c #4E553B",
"i  c #4C533E",
"p  c #575132",
"a  c #535733",
"s  c #53583C",
"d  c #52583D",
"f  c #575D3E",
"g  c #604723",
"h  c #604823",
"j  c #635928",
"k  c #6F5A2B",
"l  c #6F5B2B",
"z  c #685E2B",
"x  c #6F5C2B",
"c  c #6D5A2D",
"v  c #70592B",
"b  c #715A2C",
"n  c #655B33",
"m  c #615C37",
"M  c #695A30",
"N  c #7B5D3F",
"B  c #65612F",
"V  c #716430",
"C  c #736432",
"Z  c #776734",
"A  c #7F6D3B",
"S  c #7F7139",
"D  c #7D7238",
"F  c gray25",
"G  c #414141",
"H  c #434343",
"J  c #434542",
"K  c #444741",
"L  c #444444",
"P  c #444544",
"I  c gray28",
"U  c #464E41",
"Y  c #464B44",
"T  c #484848",
"R  c #4B4B4B",
"E  c #4B4D4A",
"W  c #4B4C4B",
"Q  c #4C4C4C",
"!  c #4E4E4E",
"~  c gray31",
"^  c #544A40",
"/  c #574D43",
"(  c #4B5644",
")  c #4C5943",
"_  c #4C5945",
"`  c #4F5F45",
"'  c #4B5148",
"]  c #4F514E",
"[  c #4F504F",
"{  c #545B40",
"}  c #5F5F41",
"|  c #505549",
" . c #5C5248",
".. c #7C5E40",
"X. c #7E6042",
"o. c #7F6540",
"O. c #8F673F",
"+. c #836F39",
"@. c #836F3A",
"#. c #8D6C3A",
"$. c #8B693D",
"%. c #8D6C3F",
"&. c #916A3B",
"*. c #926941",
"=. c #936B43",
"-. c #956F44",
";. c #976E45",
":. c #857040",
">. c #8D7A47",
",. c #997047",
"<. c #9A7047",
"1. c #9A7249",
"2. c #9A724B",
"3. c #9C754D",
"4. c #A77B50",
"5. c #A67B51",
"6. c #AE8256",
"7. c #AF8256",
"8. c #B1875D",
"9. c #AB8C62",
"0. c #AF8964",
"q. c #B79069",
/* pixels */
". v * * * . v * * * * . v * * * . v * * * . v * * * . v * * * * ",
"  v * * 1 C O.O.Z 1 < u ~ ~ ~ ~ ~ ~ ~ ~ ~ ~ f < * * . v * * * * ",
". v * * j >.2.=.A 0 r _ R R R R R R R R R R _ e < < . v * * * * ",
"  &.* z :.9.0.2.o.} t Y L L L L L L L L L L Y _ ` s $ v * * * * ",
"  v 1 Z 3.q.q.3.X. .T H F F F F F F F F F F H T R R i B * * * * ",
"  v 1 S 1.8.8.1.../ H G F F F F F F F F F F G H L L Y { w * * * ",
"  &.1 S <.7.6.,.N ^ F F F F F F F F F F F F F F F F L R s < * * ",
"  &.1 S <.7.6.,.N ^ F F F F F F F F F F F F F F F F L R ` < * * ",
"  &.1 S <.7.6.,.N ^ F F F F F F F F F F F F F F F F H T ) 9 * * ",
"  &.1 S <.7.6.,.N ^ F F F F F F F F F F F F F F F F G H U a q * ",
"  &.1 S <.7.6.,.N ^ F F F F F F F F F F F F F F F F F F K ( d * ",
"  &.1 S <.7.6.,.N ^ F F F F F F F F F F F F F F F F F F J ' | * ",
"  &.1 S <.7.6.,.N ^ F F F F F F F F F F F F F F F F F F P E ] * ",
"  * + S <.7.6.,.N ^ F F F F F F F F F F F F F F F F F F L W [ * ",
"    + S <.7.6.,.N ^ F F F F F F F F F F F F F F F F F F L R ~ * ",
"  . #.S <.7.6.,.N ^ F F F F F F F F F F F F F F F F F F L R ~ * ",
"  v x S <.7.6.,.N ^ F F F F F F F F F F F F F F F F F F L R ~ * ",
". &.1 S <.7.6.,.N ^ F F F F F F F F F F F F F F F F F F L R ~ * ",
"  #.j @.<.7.6.,.N ^ F F F F F F F F F F F F F F F F F F L R ~ . ",
"  +.@.$.<.7.6.,.N ^ F F F F F F F F F F F F F F F F F F L R ~   ",
"  O.O.O.<.7.6.,.N ^ F F F F F F F F F F F F F F F F F F L R ~ . ",
"  O.O.O.<.7.6.,.N ^ F F F F F F F F F F F F F F F F F F L R ~ * ",
"  +.@.$.<.7.6.,.N ^ F F F F F F F F F F F F F F F F F F L R ~ * ",
"  #.j @.<.7.6.,.N ^ F F F F F F F F F F F F F F F F F F L R ~ * ",
"  &.1 S <.7.6.,.N ^ F F F F F F F F F F F F F F F F F F L R ~ * ",
"  &.1 S <.7.6.,.N ^ F F F F F F F F F F F F F F F F F F L R ~ * ",
"  &.1 S <.7.6.,.N ^ F F F F F F F F F F F F F F F F F F L R ~ * ",
"  v 1 S <.7.6.,.N ^ F F F F F F F F F F F F F F F F F F L R ~ * ",
". &.1 D -.5.4.;.../ L L L L L L L L L L L L L L L L L L I Q ~ * ",
"  v > V %.-.;.*.X. .R R R R R R R R R R R R R R R R R R Q ! ~ * ",
". v * , h o b g : 2 3 @ c ; 3 3 # M 6 7 7 % n 5 7 8 & m p y 4 * ",
". v * * - O l - = = = X k = = * X v * * = X k = = = X k = = = * "
};
