/* XPM */
static char *_7b58e82b9c2452eaad768a0f09c95e0tmJc7dwYii6s4iGp[] = {
/* columns rows colors chars-per-pixel */
"32 32 11 1 ",
"  c #161616",
". c #3D2C11",
"X c #4D381C",
"o c #5E4522",
"O c #465231",
"+ c #70592B",
"@ c #78652B",
"# c #916A3B",
"$ c #B68B63",
"% c #475982",
"& c #EEC39A",
/* pixels */
"X+oooX+ooooX+oooX+oooX+oooX+oooo",
".+oooX+ooooX+oooX+oooX+oooX+oooo",
"X+oooX+ooooX+oo$$+oooX+oooX+oooo",
".#oooX+oooo.+o$&&&ooo.+ooo.+oooo",
".+ooo.+oooo.+o&&&&oooX+oooX+oooo",
".+oooX@oooo.oX&&&&ooo.@ooo.@oooo",
".#ooo.@oooo..XX&$@ooo.@ooo.@oooo",
".#ooo.#oooo.X# && ooo.oXXX.#oooo",
".#ooo.@oooo.@O OO Ooo..XX..@oooo",
".#ooo.#oooo.OO    OOo.X#oX.#oooo",
".#ooo.#oooo.OO    OOo.#+oo.#oooo",
".#ooo.#ooooOO      OO.#ooo.#oooo",
".#ooo.#oooo&O      O&.#ooo.#oooo",
".oXXX.#oooo&&      &&.#ooo.#oooo",
"..XX..#ooo&&#      o&&#ooo.#oooo",
".X#oX.#ooo&&#OOOOOOo&&#ooo.#oooo",
".++oo.oXXX&&       o&&#ooo.#oooo",
"X#ooo..XXX&.  %%%%%oo&#ooo.#oooo",
".#ooo.X#+o .#%%%%%%oo #ooo.oXXXX",
".#ooo.#+oo  %%%o.%%%  #ooo..XXX.",
".#ooo.#ooo &%%%o.%%%& #ooo.X#+oX",
".#ooo.#oooo.%%oo.X%%X.#ooo.#+ooo",
".#ooo.#oooo.%%oo.#%%o.#ooo.#oooo",
".#ooo.#oooo%%ooo.#o%%.#ooo.#oooo",
".#ooo.#oooo%%ooo.#o%%.#ooo.#oooo",
".#oooX#oooo%%ooo.#o%%.#ooo.#oooo",
".#ooo.@oooo @ooo.@oo .@ooo.@oooo",
".+oooX#oooo @ooo.#oo .@oooX@oooo",
"X#oooX@ooo  @oooX@oo  @ooo.@oooo",
".+oooX@oo   @ooo.@oo   oooX@oooo",
"X+oooX+ooooX+oooX+oooX+oooX+oooo",
"X+oooX+ooooX+oooX+oooX+oooX+oooo"
};
