/* XPM */
static char *_d5f41ba8fde44d1bdf7e36fe1b7510ceRSmKdHdc3Ta3LNT[] = {
/* columns rows colors chars-per-pixel */
"39 39 5 1 ",
"  c #4E8F27",
". c black",
"X c #4F2C14",
"o c #885B39",
"O c #D78244",
/* pixels */
"                                       ",
"                                       ",
"                                       ",
"                                       ",
"                                       ",
"                                       ",
"                                       ",
"                                       ",
"                                       ",
"                                       ",
"                ....                   ",
"                .XX.                   ",
"         ........Xo.                   ",
"        ..ooOOOOOOo..                  ",
"        .oooOO..OOOO..                 ",
"        .ooOOOOOOOOOO..                ",
"        .oOOOOOOOOOOOO.......          ",
"        .oOOOOOOOOOOOOOOOOOO..         ",
"        ........OOOOOOOOOOOOO.         ",
"               ..OOOOOOOooOOO.         ",
"                .OOOOOOOOOOOO.         ",
"                .OOOOOooOOooO.         ",
"                ..OOOOOOOOOOO..        ",
"                 .OOOOOOOOOOOO.        ",
"                 .XOO....OOOOX..       ",
"                ..XX... ...OXXX.       ",
"                .XXX...  ...XXX.       ",
"                .XX.... ....XX..       ",
"                .X.. .. .. .XX.        ",
"                ...        ....        ",
"                                       ",
"                                       ",
"                                       ",
"                                       ",
"                                       ",
"                                       ",
"                                       ",
"                                       ",
"                                       "
};