/* XPM */
static char *_209beb81de74414b7b24acc50b1f44433yaz8sHJsevqlQI[] = {
/* columns rows colors chars-per-pixel */
"39 39 14 1 ",
"  c #4E8F27",
". c #162C0D",
"X c #081A03",
"o c #94B333",
"O c #162D0D",
"+ c #294B1A",
"@ c #172E0E",
"# c #3E7028",
"$ c #542A23",
"% c #342720",
"& c #663931",
"* c #221E1C",
"= c #8F563B",
"- c #35611A",
/* pixels */
"                                       ",
"                                       ",
"                 .                     ",
"                Xo. .. .O              ",
"             XX Xo.X++X.o.@            ",
"             X.X+oo+..+  o+.           ",
"           XX+o+++o+  o+  +o.          ",
"          X+++o.++ ++ o+++ +#.         ",
"         X++  o$+   ++ . o++#.         ",
"         X.   +%$+  .+$++o .+.         ",
"        X+. ++ +%++++$ o.+ ..          ",
"        X o..++ o.o.%$. . o.o.         ",
"        X o.oo. +  o. ..  o.o.         ",
"       X+ .   o+.   o +   o++.         ",
"       XX++.+  o++  o+.   +o..         ",
"         X..o+  o+  +o. +++ %.         ",
"         X+  ++ o+++ +$..++ +%.        ",
"         X+  o++ . o++$++o. XX.        ",
"          X  ++.+++o %$++ o.           ",
"           X+o++ o.+$%+++ .            ",
"            XX.  o.$$+..+.             ",
"              X  Xo$$.XXX              ",
"               XX X$&X                 ",
"                  *$=%                 ",
"                  *$=%                 ",
"                  *$=%-----            ",
"                -*$&=%%------          ",
"             ----*$&&=%--------        ",
"           -----*$=$&=$%-------        ",
"           ----*$=&$=$&=%-------       ",
"          -----**$$&$$$&&%------       ",
"          -------*$=$****%------       ",
"          --------*$%----------        ",
"           --------*%----------        ",
"           ------------------          ",
"            -----------------          ",
"                --------               ",
"                                       ",
"                                       "
};