/* XPM */
static char *da71a04428d444d4c70da48da6e125d1dnwurZcB6qBQfn2J[] = {
/* columns rows colors chars-per-pixel */
"32 32 5 1 ",
"  c #733D3B",
". c #BF4830",
"X c #B9704F",
"o c #D77643",
"O c #C28569",
/* pixels */
".......O........XO......O......O",
" ... ..o .X......OX....Xo......o",
"......XoX.. ...XXOX.. .XOX.  ..o",
"OOOooOOoooOOoooOOoooOOOOOOoooOOo",
".OXX.... OX........OX......O....",
".OX......OX.....XX.O......XO....",
".O......oOX  .o....OX......O ...",
"OOOOOooOOOOOOOOOOOOoOOOOooOoOOoo",
".....O ..XXO X.......OX .....O..",
".....O.....O .......XOX.....XO..",
"..X..O.....O X......oO ....X.o .",
"OoooOOooooOoOOOOOOOOOOOOOOooooOO",
"..O ...X.O......OXX....OX..O....",
"..O... ..O .... O......O...O....",
"..O .....O .....Oo.....OX..O ...",
"OOoOOoOoOOOOOOOOOOOOOOOOOOOoOOOO",
"...XXO.....O..X....OX.......O...",
". . .O....XOXX ....O ..X....o...",
".....Oo..XXO ..... OX.......o  .",
"OoOOOoOOOOOOOOOOOOOOOOOOOOOOoooO",
".O......O .....X.OX ......O.....",
".O......oX.......O........O.... ",
".OX.X..XO . ... .O ......Xo ... ",
"OoOOooOOoOOOooooOOOOOoOoOOOOOoOO",
" ....O ......OX.....Xo.......O. ",
".....O.X.....o......XoX......O. ",
".. XXO .....XO  .....O  .Xo. O. ",
"OOOoOOOOOOOOOoOOOOOoOOooOOOOoOOO",
"...o...X..XO .....XOX.....XO... ",
"...O.......O.......O......XO....",
".  o.......O ......OX. ....O....",
"OOOooOOOoOOoOOOOOOoOOOOoooOOOOOO"
};
